<svg width="66" height="70" viewBox="0 0 66 70" fill="none" xmlns="http://www.w3.org/2000/svg">
<circle cx="33" cy="37" r="32" stroke="white" stroke-opacity="0.1"/>
<g filter="url(#filter0_d_1_4739)">
<path d="M33 5C41.1391 5 48.9723 8.1014 54.9055 13.673" stroke="white" stroke-width="2" stroke-linecap="round"/>
</g>
<path fill-rule="evenodd" clip-rule="evenodd" d="M29.2286 28H36.7715C39.5516 28 41.0996 29.602 41.0996 32.347V41.644C41.0996 44.434 39.5516 46 36.7715 46H29.2286C26.4926 46 24.8996 44.434 24.8996 41.644V32.347C24.8996 29.602 26.4926 28 29.2286 28ZM29.4709 32.194V32.185H32.161C32.5489 32.185 32.8639 32.5 32.8639 32.8861C32.8639 33.283 32.5489 33.598 32.161 33.598H29.4709C29.083 33.598 28.7689 33.283 28.7689 32.896C28.7689 32.509 29.083 32.194 29.4709 32.194ZM29.4709 37.6661H36.5269C36.9139 37.6661 37.2289 37.3511 37.2289 36.9641C37.2289 36.5771 36.9139 36.2612 36.5269 36.2612H29.4709C29.083 36.2612 28.7689 36.5771 28.7689 36.9641C28.7689 37.3511 29.083 37.6661 29.4709 37.6661ZM29.4711 41.779H36.5271C36.8862 41.743 37.1571 41.4361 37.1571 41.077C37.1571 40.708 36.8862 40.402 36.5271 40.366H29.4711C29.2011 40.339 28.9401 40.465 28.7961 40.699C28.6521 40.924 28.6521 41.221 28.7961 41.455C28.9401 41.68 29.2011 41.815 29.4711 41.779Z" fill="white"/>
<defs>
<filter id="filter0_d_1_4739" x="28" y="0" width="31.9055" height="18.673" filterUnits="userSpaceOnUse" color-interpolation-filters="sRGB">
<feFlood flood-opacity="0" result="BackgroundImageFix"/>
<feColorMatrix in="SourceAlpha" type="matrix" values="0 0 0 0 0 0 0 0 0 0 0 0 0 0 0 0 0 0 127 0" result="hardAlpha"/>
<feOffset/>
<feGaussianBlur stdDeviation="2"/>
<feComposite in2="hardAlpha" operator="out"/>
<feColorMatrix type="matrix" values="0 0 0 0 1 0 0 0 0 1 0 0 0 0 1 0 0 0 0.49 0"/>
<feBlend mode="normal" in2="BackgroundImageFix" result="effect1_dropShadow_1_4739"/>
<feBlend mode="normal" in="SourceGraphic" in2="effect1_dropShadow_1_4739" result="shape"/>
</filter>
</defs>
</svg>
