<svg width="66" height="70" viewBox="0 0 66 70" fill="none" xmlns="http://www.w3.org/2000/svg">
<circle cx="33" cy="37" r="32" stroke="white" stroke-opacity="0.1"/>
<g filter="url(#filter0_d_1_4695)">
<path d="M33 5C41.1391 5 48.9723 8.1014 54.9055 13.673" stroke="white" stroke-width="2" stroke-linecap="round"/>
</g>
<path d="M26.0602 29.36C26.0597 29.36 26.0591 29.36 26.0585 29.36C25.8694 29.36 25.6915 29.4337 25.5571 29.5677C25.4213 29.7032 25.3465 29.8836 25.3465 30.0757V40.8074C25.3465 41.2009 25.6679 41.5218 26.063 41.5229C27.7289 41.5268 30.5199 41.874 32.4453 43.8889V32.6579C32.4453 32.5245 32.4112 32.3992 32.3469 32.2955C30.7666 29.7506 27.7298 29.3639 26.0602 29.36Z" fill="white"/>
<path d="M40.654 40.8074V30.0757C40.654 29.8836 40.5792 29.7032 40.4434 29.5677C40.3091 29.4337 40.131 29.36 39.9421 29.36C39.9414 29.36 39.9408 29.36 39.9403 29.36C38.2707 29.364 35.234 29.7506 33.6536 32.2956C33.5893 32.3993 33.5553 32.5246 33.5553 32.658V43.8889C35.4807 41.874 38.2717 41.5268 39.9375 41.5229C40.3326 41.5218 40.654 41.2009 40.654 40.8074Z" fill="white"/>
<path d="M42.2844 31.8349H41.7655V40.8074C41.7655 41.8122 40.9468 42.6315 39.9405 42.634C38.5275 42.6374 36.1976 42.9137 34.5476 44.4753C37.4014 43.7766 40.4097 44.2308 42.1242 44.6215C42.3383 44.6703 42.5595 44.6199 42.731 44.4832C42.9019 44.3469 43 44.143 43 43.9242V32.5505C43 32.1559 42.6789 31.8349 42.2844 31.8349Z" fill="white"/>
<path d="M24.2345 40.8074V31.8349H23.7156C23.3211 31.8349 23 32.1559 23 32.5505V43.924C23 44.1429 23.098 44.3467 23.269 44.483C23.4403 44.6197 23.6613 44.6702 23.8758 44.6213C25.5902 44.2306 28.5987 43.7764 31.4523 44.4751C29.8023 42.9135 27.4725 42.6373 26.0595 42.6339C25.0532 42.6315 24.2345 41.8122 24.2345 40.8074Z" fill="white"/>
<defs>
<filter id="filter0_d_1_4695" x="28" y="0" width="31.9055" height="18.673" filterUnits="userSpaceOnUse" color-interpolation-filters="sRGB">
<feFlood flood-opacity="0" result="BackgroundImageFix"/>
<feColorMatrix in="SourceAlpha" type="matrix" values="0 0 0 0 0 0 0 0 0 0 0 0 0 0 0 0 0 0 127 0" result="hardAlpha"/>
<feOffset/>
<feGaussianBlur stdDeviation="2"/>
<feComposite in2="hardAlpha" operator="out"/>
<feColorMatrix type="matrix" values="0 0 0 0 1 0 0 0 0 1 0 0 0 0 1 0 0 0 0.49 0"/>
<feBlend mode="normal" in2="BackgroundImageFix" result="effect1_dropShadow_1_4695"/>
<feBlend mode="normal" in="SourceGraphic" in2="effect1_dropShadow_1_4695" result="shape"/>
</filter>
</defs>
</svg>
