<svg width="66" height="70" viewBox="0 0 66 70" fill="none" xmlns="http://www.w3.org/2000/svg">
<circle cx="33" cy="37" r="32" stroke="white" stroke-opacity="0.1"/>
<g filter="url(#filter0_d_1_4723)">
<path d="M33 5C41.1391 5 48.9723 8.1014 54.9055 13.673" stroke="white" stroke-width="2" stroke-linecap="round"/>
</g>
<path fill-rule="evenodd" clip-rule="evenodd" d="M34.305 30.5922H37.068C40.389 30.5922 42.009 32.3652 42 36.0012V40.3842C42 43.8582 39.858 46.0002 36.375 46.0002H29.616C26.151 46.0002 24 43.8582 24 40.3752V33.6162C24 29.8902 25.656 28.0002 28.923 28.0002H30.345C31.1829 27.9912 31.965 28.3782 32.478 29.0352L33.27 30.0882C33.522 30.4032 33.9 30.5922 34.305 30.5922ZM28.8331 39.9613H37.1671C37.5361 39.9613 37.8331 39.6553 37.8331 39.2863C37.8331 38.9083 37.5361 38.6113 37.1671 38.6113H28.8331C28.4551 38.6113 28.1581 38.9083 28.1581 39.2863C28.1581 39.6553 28.4551 39.9613 28.8331 39.9613Z" fill="white"/>
<defs>
<filter id="filter0_d_1_4723" x="28" y="0" width="31.9055" height="18.673" filterUnits="userSpaceOnUse" color-interpolation-filters="sRGB">
<feFlood flood-opacity="0" result="BackgroundImageFix"/>
<feColorMatrix in="SourceAlpha" type="matrix" values="0 0 0 0 0 0 0 0 0 0 0 0 0 0 0 0 0 0 127 0" result="hardAlpha"/>
<feOffset/>
<feGaussianBlur stdDeviation="2"/>
<feComposite in2="hardAlpha" operator="out"/>
<feColorMatrix type="matrix" values="0 0 0 0 1 0 0 0 0 1 0 0 0 0 1 0 0 0 0.49 0"/>
<feBlend mode="normal" in2="BackgroundImageFix" result="effect1_dropShadow_1_4723"/>
<feBlend mode="normal" in="SourceGraphic" in2="effect1_dropShadow_1_4723" result="shape"/>
</filter>
</defs>
</svg>
