<svg width="24" height="24" viewBox="0 0 24 24" fill="none" xmlns="http://www.w3.org/2000/svg">
<path d="M21.3288 6.29878L19.9269 6.29871V4.77359C19.9269 4.42442 19.6838 4.12776 19.3552 4.0761C19.2978 4.06704 17.932 3.85855 16.2874 4.17305C14.4539 4.52363 12.9917 5.38821 12 6.69522C11.0082 5.38821 9.54597 4.52363 7.71257 4.17305C6.06786 3.85862 4.70208 4.06704 4.64477 4.0761C4.31615 4.12783 4.07306 4.42449 4.07306 4.77359V6.29871H2.67111C2.30054 6.29871 2 6.61455 2 7.00405L2 20.2947C2 20.523 2.10518 20.7372 2.28236 20.8696C2.45953 21.0019 2.68666 21.0359 2.89185 20.9607C2.94222 20.9424 7.97136 19.1387 11.7214 20.9363C11.8984 21.0212 12.1016 21.0212 12.2786 20.9363C16.0181 19.1438 21.058 20.9425 21.1081 20.9607C21.1801 20.987 21.2545 21 21.3288 21C21.4663 21 21.6025 20.9556 21.7176 20.8696C21.8948 20.7373 22 20.5231 22 20.2947L22 7.00412C21.9999 6.61462 21.6995 6.29878 21.3288 6.29878ZM3.34229 19.351L3.34229 7.70933H4.07306L4.07306 17.1021C4.07306 17.307 4.15838 17.5017 4.30592 17.6356C4.45346 17.7696 4.64969 17.8297 4.84255 17.7997C4.87959 17.7941 7.79513 17.3734 9.92523 18.9093C7.30133 18.4378 4.67521 18.9832 3.34229 19.351ZM11.3289 18.2732C10.3907 17.3824 9.16866 16.78 7.71257 16.5016C7.01183 16.3676 6.36174 16.3285 5.84187 16.3285C5.68753 16.3285 5.54463 16.332 5.41541 16.3374L5.41541 5.42126H5.41534C6.70524 5.36011 9.84307 5.50504 11.3289 8.15198L11.3289 18.2732ZM12.6711 8.15205C14.1515 5.51644 17.2943 5.36492 18.5846 5.42302L18.5846 16.3374C18.0201 16.3135 17.196 16.3278 16.2874 16.5016C14.8313 16.78 13.6093 17.3823 12.6711 18.2732L12.6711 8.15205ZM14.0725 18.9097C16.2028 17.3729 19.1199 17.794 19.1563 17.7997C19.3496 17.8302 19.5457 17.7704 19.6937 17.6365C19.8418 17.5025 19.9269 17.3075 19.9269 17.1021L19.9269 7.7094L20.6576 7.7094L20.6576 19.351C19.3243 18.983 16.6971 18.4374 14.0725 18.9097Z" fill="white"/>
</svg>
